<svg xmlns="http://www.w3.org/2000/svg" viewBox="0 0 64 64" width="64" height="64">
  <rect width="100%" height="100%" fill="none"/>
  <g transform="translate(32,32)">
    <g fill="#FBBF24">
      <path d="M0-18 L4-4 18 0 4 4 0 18 -4 4 -18 0 -4 -4 Z" />
    </g>
    <g fill="#FDE68A" transform="scale(0.45) translate(20,-16)">
      <path d="M0-8 L2-2 8 0 2 2 0 8 -2 2 -8 0 -2 -2 Z" />
    </g>
    <g fill="#FDE68A" transform="scale(0.35) translate(-24,8)">
      <path d="M0-6 L1-1 6 0 1 1 0 6 -1 1 -6 0 -1 -1 Z" />
    </g>
  </g>
</svg>
